<?xml version="1.0" standalone="no"?>
<!DOCTYPE svg PUBLIC "-//W3C//DTD SVG 20010904//EN"
 "http://www.w3.org/TR/2001/REC-SVG-20010904/DTD/svg10.dtd">
<svg version="1.0" xmlns="http://www.w3.org/2000/svg"
 width="200.000000pt" height="200.000000pt" viewBox="0 0 200.000000 200.000000"
 preserveAspectRatio="xMidYMid meet">
<metadata>
Created by potrace 1.14, written by Peter Selinger 2001-2017
</metadata>
<g transform="translate(0.000000,200.000000) scale(0.100000,-0.100000)"
fill="#000000" stroke="none">
<path d="M711 1588 c-123 -19 -260 -117 -316 -227 -45 -89 -61 -208 -41 -298
7 -30 6 -32 -31 -42 -94 -26 -188 -118 -214 -211 -48 -169 40 -335 206 -390
55 -18 1293 -22 1373 -4 259 58 295 414 52 526 -25 12 -50 21 -56 21 -7 0 -8
14 -4 39 25 137 -43 279 -162 337 -51 24 -130 41 -167 35 -67 -11 -89 -18
-123 -37 -21 -11 -39 -19 -40 -16 -2 2 -12 22 -23 44 -28 56 -121 148 -181
178 -87 44 -178 59 -273 45z m231 -96 c101 -50 180 -147 203 -251 8 -38 20
-39 51 -6 13 14 46 37 73 50 122 62 277 4 334 -123 23 -54 26 -146 4 -188 -32
-63 -31 -70 11 -68 122 3 226 -101 224 -227 -1 -84 -72 -177 -151 -199 -22 -6
-287 -10 -686 -10 l-650 0 -50 24 c-55 25 -110 81 -131 132 -22 52 -18 141 10
200 39 83 137 144 234 144 29 0 33 3 27 18 -73 176 -30 357 110 464 75 57 135
76 235 74 75 -1 94 -5 152 -34z"/>
<path d="M700 1456 c-120 -32 -220 -147 -224 -255 -1 -46 1 -48 44 -42 5 0 12
18 16 39 16 91 87 170 175 196 28 9 55 13 60 10 5 -3 9 11 9 30 0 41 -6 42
-80 22z"/>
<path d="M678 1310 c-33 -22 -51 -44 -67 -79 -24 -58 -20 -77 15 -76 21 0 28
8 39 40 15 43 45 71 86 80 18 4 28 14 32 30 2 14 2 27 -1 30 -14 14 -63 2
-104 -25z"/>
<path d="M1373 1221 c0 -25 5 -31 29 -36 39 -9 84 -55 93 -94 6 -26 11 -31 36
-31 23 0 29 4 29 23 -1 70 -76 151 -152 163 -33 6 -35 5 -35 -25z"/>
<path d="M359 900 c-61 -17 -98 -49 -124 -109 -42 -94 10 -212 107 -248 67
-24 64 -32 64 172 0 123 -3 185 -10 188 -6 2 -23 1 -37 -3z"/>
<path d="M1599 840 c-76 -13 -129 -79 -129 -158 0 -44 28 -93 73 -126 41 -30
123 -28 170 4 135 93 47 308 -114 280z m65 -70 c32 -12 58 -61 52 -97 -13 -69
-101 -100 -150 -54 -33 31 -41 72 -22 110 26 48 65 62 120 41z"/>
</g>
</svg>
